<svg version="1.1" xmlns="http://www.w3.org/2000/svg" style="display: block;" viewBox="0 0 1024 2048" width="881" height="1762" preserveAspectRatio="none">
<path transform="translate(0,0)" fill="rgb(255,255,255)" d="M 0 0 L 1024 0 L 1024 2048 L 0 2048 L 0 0 z"/>
<path transform="translate(0,0)" fill="rgb(0,0,0)" d="M 115.053 556.151 C 116.884 556.017 118.719 555.95 120.554 555.952 C 140.929 556.125 161.206 559.812 181.522 560.928 C 243.994 564.359 286.882 560.853 334.787 609.428 C 349.023 623.863 364.081 643.595 367.937 664.002 C 371.301 681.809 368.719 712.636 368.47 731.601 C 368.042 764.165 368.605 796.921 367.579 829.452 C 367.226 840.648 365.317 851.774 364.808 862.971 C 363.946 881.936 364.353 901.102 364.31 920.088 C 364.278 934.79 363.187 950.52 364.72 965.091 C 365.69 974.306 369.234 982.931 369.397 992.332 C 369.48 997.143 368.884 1001.99 366.94 1006.43 C 354.601 1034.6 262.192 1123.51 262.631 1139.84 C 263.015 1154.13 371.42 1261.33 380.048 1298.61 C 384.086 1316.06 383.006 1334.5 383.023 1352.29 L 383.04 1409.66 C 383.053 1482.88 383.03 1556.14 383.365 1629.36 C 383.426 1642.75 386.7 1641.94 386.565 1653.02 C 385.94 1704.25 386.753 1755.17 387.601 1806.39 C 387.739 1814.76 390.136 1826.34 391.026 1835.03 C 391.992 1844.45 392.008 1851.71 391.922 1861.14 C 367.743 1849.43 336.301 1823.52 314.974 1806.73 C 312.595 1804.86 308.463 1798.94 305.07 1795.73 L 304.361 1795.07 C 307.219 1779.54 307.625 1752.94 307.914 1736.89 L 309.164 1679.27 C 310.739 1580.46 311.313 1481.64 310.884 1382.81 C 310.579 1353.73 315.116 1316.06 296.075 1292.88 C 272.904 1264.66 247.483 1238.34 223.334 1210.96 C 218.316 1205.27 198.361 1179.24 193.603 1178.49 C 191.474 1179.34 188.998 1180.41 188.656 1183.08 C 186.497 1199.87 187.531 1224.31 187.525 1241.07 L 186.757 1410.91 C 186.489 1430.6 187.564 1450.98 186.399 1470.58 C 186.277 1472.63 185.582 1474.26 184.662 1476.07 C 184 1477.38 183.612 1478.55 183.52 1480.03 C 182.74 1492.63 181.177 1602.11 184.672 1606.36 C 190.12 1612.99 201.062 1618.39 208.382 1623.26 C 227.824 1636.19 246.304 1648.42 261.738 1666.22 C 268.866 1706.28 266.731 1725.11 265.625 1765.91 L 265.374 1765.58 C 257.432 1755.3 248.755 1751.77 240.255 1742.88 C 212.345 1713.7 182.342 1687.15 151.171 1661.56 C 140.856 1652.33 124.91 1641.56 116.946 1630.42 C 113.648 1625.81 114.994 1595.15 115.071 1589.11 C 115.422 1568.32 115.616 1547.53 115.653 1526.74 L 114.474 1304.83 C 112.634 1055.27 112.827 805.705 115.053 556.151 z"/>
<path transform="translate(0,0)" fill="rgb(255,255,255)" d="M 189.142 632.118 C 220.519 630.903 265.881 637.195 288.739 660.778 C 297.49 669.806 295.255 714.214 295.371 727.861 L 295.858 818.03 L 296.065 907.529 C 296.141 919.672 297.894 971.479 294.105 979.708 C 283.333 1003.1 255.8 1031.17 238.5 1051.16 C 230.834 1060.21 188.869 1122.65 188.333 1086.53 C 188.002 1064.19 187.32 1040.09 187.187 1017.63 L 186.573 876.743 C 186.433 858.563 183.89 840.575 183.755 822.624 C 183.323 765.119 183.215 707.496 183.531 649.992 C 183.568 643.282 184.939 637.412 189.142 632.118 z"/>
<path transform="translate(0,0)" fill="rgb(0,0,0)" d="M 541.152 571.181 C 586.299 569.738 616.473 585.325 646.929 619.065 C 658.927 632.357 675.641 655.878 678.59 674.055 C 682.585 698.685 678.95 727.531 679.473 752.683 C 679.684 775.555 678.908 795.018 676.266 818.964 C 674.437 835.541 679.202 895.758 672.532 907.719 C 668.133 915.61 613.661 909.708 602.154 908.827 C 597.606 835.351 603.783 759.489 597.162 686.362 C 593.559 647.341 531.741 647.923 508.607 666.468 C 494.782 677.55 497.823 727.358 497.849 744.709 L 498.837 854.761 L 498.881 934.19 C 498.871 944.446 498.005 966.677 499.419 976.205 C 502.74 998.58 533.861 1031.6 548.23 1048.78 C 571.323 1076.5 595.091 1103.64 619.512 1130.2 C 636.001 1148.07 652.607 1166.27 668.573 1184.62 C 670.846 1187.51 674.842 1193.22 675.418 1196.82 C 677.361 1208.98 676.211 1221.59 676.185 1233.93 C 676.162 1245.3 675.824 1256.78 675.786 1268.2 C 675.557 1338.02 674.416 1407.83 674.539 1477.64 C 674.56 1489.12 672.106 1500.59 671.662 1512.05 C 671.301 1530.95 671.346 1550.14 671.239 1569.07 C 642.352 1602.33 605.552 1630.29 572.561 1660.03 C 541.049 1688.44 508.928 1720.72 476.722 1747.7 C 467.446 1756.08 442.049 1776.17 436.891 1784.92 C 435.44 1778.92 434.533 1774.81 434.301 1768.66 C 432.761 1727.73 432.836 1686.9 432.908 1645.95 L 433.754 1392.45 C 433.771 1369.4 433.015 1346.29 433.898 1323.17 C 434.12 1317.36 432.143 1299.23 433.211 1295.21 C 442.485 1288.22 482.2 1291.87 494.993 1292.88 C 496.528 1293 501.569 1295.83 503.172 1296.77 C 503.983 1309.27 503.046 1363.2 504.69 1369.99 C 511.473 1398.01 504.006 1599.13 509.439 1608.28 C 511.48 1608.23 516.423 1608.06 517.983 1606.78 C 542.33 1586.85 565.966 1566.03 590.652 1546.51 C 593.665 1544.13 596.131 1541.4 598.616 1538.49 C 601.44 1510.53 606.549 1230.99 601.654 1215.41 C 593.858 1190.59 567.708 1164.15 550.204 1144.88 L 486.245 1074.33 C 468.465 1054.61 448.023 1032.23 433.698 1009.83 C 422.657 988.914 424.433 954.967 424.658 931.816 C 425.296 866.199 424.502 801.205 422.793 735.691 C 422.357 697.857 420.36 667.981 443.341 635.627 C 470.476 597.425 495.939 580.31 541.152 571.181 z"/>
<path transform="translate(0,0)" fill="rgb(0,0,0)" d="M 459.075 156.835 C 460.447 157.726 473.59 167.41 474.444 168.237 C 519.505 211.84 567.65 251.892 614.389 293.617 L 763.67 425.348 C 816.669 472.243 867.976 520.46 923.736 564.282 C 928.836 568.29 954.466 589.074 955.472 594.581 C 963.106 636.404 954.717 680.349 955.389 722.524 C 955.625 738.248 955.213 753.521 955.118 768.863 L 954.05 1245.84 L 954.224 1391.32 L 954.335 1438.64 C 954.372 1455.65 956.683 1457.42 949.327 1473.5 C 939.383 1479.79 919.23 1499.25 909.015 1508.19 C 872.057 1540.12 835.833 1572.88 800.37 1606.46 C 751.972 1651.42 701.067 1693.39 652.785 1737.72 L 533.235 1847.49 C 514.627 1864.29 493.703 1884.04 474.359 1899.55 C 468.134 1904.67 458.162 1913.08 450.649 1915.87 C 442.192 1915.04 439.918 1905.88 438.276 1898.64 C 432.001 1871 429.441 1852.56 451.339 1832.04 C 499.835 1786.61 550.274 1743.96 600.225 1700.39 L 804.964 1518.74 C 827.845 1498.59 863.344 1472.87 881.547 1448.87 C 886.275 1442.64 886.595 1421.03 886.632 1412.23 C 886.871 1356.77 886.556 1301.16 886.744 1245.66 L 887.63 877.399 L 887.886 726.688 C 887.772 602.016 896.699 624.482 804.462 543.637 L 640.832 402.797 C 626.983 390.798 614.229 378.126 600.657 366.148 C 565.554 335.328 529.981 305.048 493.951 275.317 C 483.093 266.279 456.329 242.325 445.654 236.153 C 444.511 232.441 440.464 219.092 441.008 216.383 C 444.414 199.434 446.465 178.861 450.152 162.32 C 452.095 159.42 455.771 158.28 459.075 156.835 z"/>
<path transform="translate(0,0)" fill="rgb(0,0,0)" d="M 443.777 301.244 C 450.05 300.663 455.059 303.132 459.754 307.313 C 477.442 323.065 497.273 338.186 513.846 355.051 C 563.433 405.513 619.907 449.507 671.109 497.962 C 683.682 509.741 695.666 522.134 707.017 535.094 C 706.973 537.398 705.225 538.463 703.297 540.623 C 700.111 541.339 690.605 543.571 687.957 543.531 C 666.158 543.204 639.519 532.938 618.737 529.45 C 583.883 523.602 533.973 517.362 499.774 526.548 C 494.547 527.258 490.488 529.557 485.634 531.008 C 458.503 539.116 434.759 561.911 409.546 571.942 C 376.555 563.046 340.764 528.919 313.075 509.038 C 312.349 508.517 307.775 508.913 306.734 507.326 C 299.601 496.458 263.403 488.649 259.739 478.78 C 263.823 474.988 270.08 464.778 273.114 462.358 C 281.192 455.917 286.868 451.105 294.45 443.949 L 413.358 329.802 C 422.87 320.503 434.923 310.698 443.777 301.244 z"/>
<path transform="translate(0,0)" fill="rgb(0,0,0)" d="M 752.277 780.896 C 766.069 781.056 812.734 779.096 820.514 784.118 C 825.916 787.604 824.431 873.664 824.436 884.001 L 824.475 1015.76 L 825.262 1441.2 C 813.874 1453.04 809.877 1456.86 796.534 1466.52 C 789.684 1471.64 757.604 1492.37 749.998 1492.85 C 746.773 1487.53 750.43 1380.04 750.595 1363.89 L 752.277 780.896 z"/>
<path transform="translate(0,0)" fill="rgb(0,0,0)" d="M 389.062 218.055 C 392.216 218.085 392.269 217.622 394.859 219.073 C 400.278 228.473 399.449 229.92 402.677 239.873 C 404.353 245.042 409.318 252.144 410.573 258.648 C 411.774 264.872 411.432 272.084 407.733 277.352 C 393.134 298.137 371.783 316.161 353.028 333.119 C 317.114 365.096 280.762 396.578 243.983 427.556 C 225.945 443.046 207.593 461.306 188.963 476.036 C 180.093 483.049 143.809 507.224 134.127 509.471 C 128.144 508.745 126.399 508.797 120.387 509.417 C 118.562 499.628 114.065 488.55 111.584 476.412 C 114.36 466.529 119.013 460.04 126.267 452.938 C 152.8 426.963 182.23 403.757 209.817 378.919 C 243.018 349.027 275.474 318.282 309.414 289.193 C 329.412 272.086 347.079 252.92 367.101 235.915 C 374.255 229.838 381.083 223.021 389.062 218.055 z"/>
<path transform="translate(0,0)" fill="rgb(0,0,0)" d="M 785.646 612.241 C 788.952 612.046 792.262 611.917 795.573 611.855 C 846.741 611.264 861.217 693.994 819.547 717.32 C 807.664 723.972 803.036 727.323 789.086 727.146 C 779.043 726.626 761.062 722.448 753.642 715.957 C 727.233 692.854 724.585 664.259 744.272 637.447 C 754.269 623.993 769.106 614.954 785.646 612.241 z"/>
</svg>